<svg xmlns="http://www.w3.org/2000/svg" id="logo-svg" width="200" height="200" viewBox="0 0 200 200" style="overflow:visible"><defs><linearGradient id="gradient" x1="0%" y1="0%" x2="100%" y2="100%"><stop offset="0%" style="stop-color: rgb(53, 132, 228); stop-opacity: 1;"/><stop offset="100%" style="stop-color: rgb(51, 209, 122); stop-opacity: 1;"/></linearGradient><filter id="shadow" x="-100%" y="-100%" width="300%" height="300%" filterUnits="objectBoundingBox"><feDropShadow dx="0" dy="2" stdDeviation="4" flood-color="rgb(0,0,0)" flood-opacity="0.05"/><feDropShadow dx="0" dy="4" stdDeviation="8" flood-color="rgb(0,0,0)" flood-opacity="0.03"/><feDropShadow dx="0" dy="6" stdDeviation="12" flood-color="rgb(0,0,0)" flood-opacity="0.02"/></filter></defs><rect x="0" y="0" width="200" height="200" fill="url(#gradient)" rx="50" ry="50" filter="url(#shadow)"/><g transform="translate(36 36)"><svg xmlns="http://www.w3.org/2000/svg" width="128" height="128" viewBox="0 0 24 24" fill="#FFFFFF" stroke="#FFFFFF" stroke-width="2" stroke-linecap="round" stroke-linejoin="round" class="lucide lucide-square-pen" fill-opacity="0"><path d="M12 3H5a2 2 0 0 0-2 2v14a2 2 0 0 0 2 2h14a2 2 0 0 0 2-2v-7"/><path d="M18.375 2.625a1 1 0 0 1 3 3l-9.013 9.014a2 2 0 0 1-.853.505l-2.873.84a.5.5 0 0 1-.62-.62l.84-2.873a2 2 0 0 1 .506-.852z"/></svg></g></svg>